# xmcd
#
# Track frame offsets:
#	183
#	10148
#	21263
#	33398
#	47060
#	55480
#	75898
#	92523
#	103510
#	117705
#	128653
#	138850
#	153048
#	160120
#	168340
#	182040
#	207470
#	228768
#	242145
#
# Disc length: 3475
#
# Revision: 1
# Processed by: cddbd v1.5.1PL0 Copyright (c) Steve Scherf et al.
# Submitted via: Feurio! 1.61 - http://www.feurio.com
# Normalized: r0:DSETVAR1
#
DISCID=e80d9113
DTITLE=Various Artist - Blues Jubilee
DYEAR=1900
DGENRE=
TTITLE0=Dinah Washington - cool kind papa
TTITLE1=Dinah Washington - it isn t fair
TTITLE2=Dinah Washington - baby get lost
TTITLE3=Dinah Washington - I wanna be loved
TTITLE4=Dinah Washington - fast movin mama
TTITLE5=Jimmy Witherspoon - ain t nobody s business
TTITLE6=Jimmy Witherspoon - no rollin blues
TTITLE7=Jimmy Witherspoon - big fine girl
TTITLE8=Jimmy Witherspoon - falling by degrees
TTITLE9=Jimmy Witherspoon - new orleans woman
TTITLE10=Jimmy Witherspoon - i gotta a girl
TTITLE11=Joe Turner - flip flop and fly
TTITLE12=Joe Turner - three o clock in the morning
TTITLE13=Joe Turner - up up and away
TTITLE14=Joe Turner - blues
TTITLE15=Helen Humes - million dollar secret
TTITLE16=Helen Humes - e baba leba
TTITLE17=Helen Humes - i m gonna let him ride
TTITLE18=Helen Humes - if i could be with you
EXTD=
EXTT0=
EXTT1=
EXTT2=
EXTT3=
EXTT4=
EXTT5=
EXTT6=
EXTT7=
EXTT8=
EXTT9=
EXTT10=
EXTT11=
EXTT12=
EXTT13=
EXTT14=
EXTT15=
EXTT16=
EXTT17=
EXTT18=
PLAYORDER=
